<svg xmlns="http://www.w3.org/2000/svg" viewBox="0 0 900 620" role="img" aria-labelledby="title desc">
  <title id="title">GLS Construction site engineering</title>
  <desc id="desc">An illustrated construction site with a crane, building frame and engineers.</desc>
  <defs>
    <linearGradient id="sky" x1="0" y1="0" x2="0" y2="1">
      <stop offset="0" stop-color="#e8edf0"/>
      <stop offset="1" stop-color="#f9f7f0"/>
    </linearGradient>
    <linearGradient id="ground" x1="0" y1="0" x2="1" y2="0">
      <stop offset="0" stop-color="#7d8c89"/>
      <stop offset="1" stop-color="#b6a47a"/>
    </linearGradient>
  </defs>
  <rect width="900" height="620" fill="url(#sky)"/>
  <circle cx="730" cy="130" r="62" fill="#d4af37" opacity=".22"/>
  <rect y="470" width="900" height="150" fill="url(#ground)"/>
  <path d="M0 485 210 425 440 478 660 410 900 466V620H0Z" fill="#6e7d79" opacity=".65"/>
  <g fill="none" stroke="#1a1a1a" stroke-width="14" stroke-linecap="round" stroke-linejoin="round">
    <path d="M140 475V118M140 145h515M140 145l-80 90M140 145l85 84M655 145v330"/>
    <path d="M225 228h430M310 145v330M405 145v330M500 145v330"/>
    <path d="M225 228 310 320 405 228 500 320 595 228"/>
  </g>
  <g fill="#f8f6ef" stroke="#1a1a1a" stroke-width="10">
    <path d="M250 490V285h300v205Z"/>
    <path d="m225 285 175-115 175 115Z"/>
    <rect x="290" y="330" width="58" height="160" fill="#a8c9d0"/>
    <rect x="450" y="330" width="58" height="160" fill="#a8c9d0"/>
  </g>
  <g fill="#d4af37" stroke="#1a1a1a" stroke-width="6">
    <circle cx="720" cy="438" r="25"/>
    <path d="M720 465v92M680 505h80M720 555l-30 55M720 555l30 55"/>
    <circle cx="790" cy="450" r="22"/>
    <path d="M790 475v75M755 510h70M790 550l-26 52M790 550l26 52"/>
  </g>
  <rect x="42" y="535" width="270" height="48" rx="4" fill="#1a1a1a" opacity=".9"/>
  <text x="66" y="567" fill="#f9f7f0" font-family="Arial, sans-serif" font-size="22" font-weight="700">GLS SITE ENGINEERING</text>
</svg>
